<svg xmlns="http://www.w3.org/2000/svg" viewBox="0 0 1499.82 1499.82">
<path id="shape0" transform="translate(158.704996269304, 212.973747057374)" fill="#9177f8" fill-rule="evenodd" stroke="#9177f8" stroke-width="3.08961914745205" stroke-linecap="square" stroke-linejoin="bevel" d="M289.306 0L288.485 0.57227L277.791 8.32672L267.264 16.2678L256.906 24.3925L246.719 32.6978L236.705 41.1804L226.866 49.8373L217.205 58.6655L207.724 67.6618L198.424 76.8232L189.308 86.1465L180.378 95.6287L171.636 105.267L163.085 115.057L154.726 124.998L146.562 135.084L138.594 145.315L130.825 155.685L123.257 166.193L115.893 176.835L108.733 187.608L101.781 198.509L95.0386 209.535L88.5077 220.683L82.1907 231.949L76.0896 243.331L70.2066 254.826L64.5439 266.43L59.1035 278.141L53.8876 289.954L48.8983 301.868L44.1378 313.879L39.6083 325.984L35.3118 338.18L31.2505 350.464L27.4265 362.832L23.842 375.282L20.499 387.811L17.3999 400.415L14.5466 413.091L11.9413 425.837L9.58621 438.649L7.4834 451.524L5.63501 464.459L4.0432 477.451L2.71009 490.497L1.63783 503.594L0.828552 516.738L0.284396 529.927L0.00749949 543.158L0 556.426L0.262873 569.685L0.794205 582.884L1.5918 596.021L2.65346 609.094L3.977 622.098L5.56021 635.032L7.4009 647.892L9.49687 660.676L11.8459 673.38L14.4459 686.002L17.2946 698.538L20.3897 710.986L23.7292 723.343L27.3107 735.605L31.1322 747.771L35.1914 759.837L39.4862 771.799L44.0142 783.656L48.7734 795.404L53.7615 807.041L58.9764 818.563L64.4158 829.967L70.0776 841.251L75.9595 852.412L82.0594 863.446L88.375 874.351L94.9042 885.124L101.645 895.762L108.595 906.262L115.751 916.621L123.113 926.836L130.677 936.905L138.441 946.824L146.404 956.59L154.563 966.201L162.915 975.653L171.459 984.944L180.193 994.07L189.114 1003.03L198.219 1011.82L207.508 1020.44L216.977 1028.88L226.625 1037.14L236.449 1045.22L246.447 1053.11L256.616 1060.82L266.956 1068.34L277.463 1075.66L288.135 1082.79L298.97 1089.71L309.966 1096.44L321.121 1102.96L332.432 1109.27L343.898 1115.37L355.515 1121.26L367.283 1126.93L379.198 1132.38L391.258 1137.61L403.462 1142.61L415.808 1147.38L428.292 1151.92L440.912 1156.23L453.668 1160.3L466.511 1164.12L479.394 1167.67L492.315 1170.95L505.269 1173.97L518.252 1176.73L531.262 1179.23L544.294 1181.46L557.345 1183.44L570.411 1185.16L583.488 1186.62L596.574 1187.82L609.664 1188.77L622.755 1189.47L635.843 1189.91L648.925 1190.1L661.997 1190.04L675.055 1189.74L688.096 1189.18L701.116 1188.38L714.112 1187.33L727.079 1186.03L740.015 1184.5L752.916 1182.72L765.778 1180.69L778.598 1178.43L791.371 1175.93L804.095 1173.19L816.765 1170.22L829.379 1167.01L841.932 1163.56L854.421 1159.88L866.842 1155.97L879.192 1151.83L891.468 1147.46L903.664 1142.86L915.779 1138.03L924.911 1134.19L918.523 1133.74L907.27 1132.56L895.928 1131.01L884.502 1129.08L872.997 1126.78L861.421 1124.1L849.777 1121.06L838.073 1117.66L826.314 1113.89L814.505 1109.77L802.653 1105.29L790.762 1100.46L778.84 1095.28L766.891 1089.75L754.921 1083.89L742.936 1077.68L730.942 1071.14L718.944 1064.27L706.948 1057.06L694.96 1049.53L682.986 1041.68L671.031 1033.5L659.102 1025.01L647.203 1016.21L635.34 1007.09L623.52 997.664L611.748 987.934L600.03 977.904L588.371 967.574L576.777 956.95L565.254 946.033L553.808 934.827L542.444 923.335L531.168 911.56L519.987 899.505L508.904 887.174L497.927 874.57L487.061 861.695L476.312 848.552L465.685 835.146L455.187 821.479L444.822 807.554L434.598 793.374L424.518 778.943L414.59 764.263L404.819 749.338L395.21 734.171L385.769 718.764L376.558 703.216L367.634 687.624L358.996 671.997L350.645 656.34L342.582 640.66L334.805 624.964L327.316 609.258L320.114 593.549L313.199 577.843L306.573 562.147L300.234 546.468L294.183 530.813L288.42 515.187L282.945 499.597L277.759 484.051L272.861 468.554L268.251 453.113L263.93 437.735L259.898 422.426L256.155 407.194L252.701 392.044L249.536 376.983L246.661 362.018L244.075 347.156L241.778 332.402L239.772 317.764L238.055 303.248L236.628 288.861L235.491 274.609L234.644 260.5L234.087 246.538L233.822 232.732L233.846 219.088L234.162 205.612L234.768 192.311L235.665 179.192L236.853 166.26L238.333 153.523L240.104 140.988L242.166 128.661L244.52 116.548L247.165 104.656L250.103 92.9919L253.332 81.5621L256.854 70.3732L260.668 59.4318L264.774 48.7445L269.173 38.3178L273.864 28.1585L278.848 18.273L284.125 8.668L289.306 0"/>
<path id="shape01" transform="translate(658.625, 509.286)" fill="#9177f8" fill-rule="evenodd" d="M184.818 17.716C219.253 99.571 233.372 156.587 227.175 188.761C221.783 216.747 198.956 249.554 158.691 287.183C211.82 272.231 251.355 270.589 277.294 282.259C307.664 295.921 348.655 339.057 400.255 411.667C367.675 331.422 353.265 275.438 357.045 243.714C360.725 212.797 384.505 177.805 428.375 138.733C377.075 156.577 336.114 158.647 305.487 144.945C272.42 130.152 232.198 87.743 184.818 17.716M12.377 0C28.688 38.775 35.376 65.782 32.44 81.023C29.887 94.28 19.073 109.82 0 127.645C25.167 120.562 43.894 119.784 56.182 125.312C70.567 131.784 89.983 152.217 114.429 186.612C98.993 148.6 92.17 122.081 93.959 107.054C95.704 92.409 106.966 75.833 127.746 57.325C103.447 65.777 84.044 66.758 69.536 60.268C53.873 53.26 34.82 33.171 12.377 0"/>
<path id="shape02" transform="translate(461.503, 157.515)" fill="#c0b0f0" fill-rule="evenodd" d="M715.687 393.467L706.957 379.398L698.097 365.535L689.117 351.879L679.997 338.434L670.767 325.204L661.427 312.19L651.977 299.396L642.417 286.825L632.757 274.48L623.017 262.364L613.177 250.48L603.257 238.831L593.257 227.42L583.177 216.25L573.037 205.324L562.837 194.645L552.567 184.216L542.257 174.041L531.888 164.122L521.48 154.461L511.033 145.063L500.553 135.931L490.044 127.066L479.513 118.472L468.963 110.153L458.401 102.111L447.83 94.35L437.256 86.872L426.685 79.68L416.12 72.777L405.567 66.167L395.032 59.852L384.518 53.835L374.032 48.12L363.578 42.709L353.161 37.606L342.787 32.813L332.46 28.334L322.185 24.171L311.967 20.327L301.812 16.806L291.724 13.611L281.709 10.744L271.772 8.209L261.916 6.008L252.149 4.145L242.474 2.623L232.897 1.444L223.422 0.612L214.055 0.129L204.801 0L195.664 0.226L186.651 0.81L177.765 1.757L169.012 3.068L160.397 4.747L151.925 6.796L143.601 9.22L135.43 12.02L127.417 15.201L119.567 18.764L111.885 22.713L104.376 27.05L97.089 31.751L90.069 36.784L83.316 42.142L76.829 47.82L70.608 53.812L64.652 60.113L58.961 66.715L53.535 73.614L48.374 80.804L43.476 88.278L38.841 96.031L34.47 104.057L30.362 112.35L26.516 120.905L22.931 129.715L19.609 138.774L16.548 148.078L13.747 157.619L11.207 167.392L8.927 177.391L6.906 187.611L5.145 198.045L3.642 208.687L2.399 219.533L1.413 230.575L0.685 241.808L0.214 253.227L0 264.825L0.043 276.596L0.342 288.535L0.896 300.635L1.706 312.891L2.771 325.298L4.091 337.849L5.665 350.538L7.492 363.359L9.573 376.307L11.908 389.376L14.494 402.559L17.334 415.852L20.425 429.248L23.767 442.741L27.361 456.326L31.205 469.996L35.3 483.746L39.645 497.57L44.239 511.463L49.083 525.417L54.175 539.427L59.516 553.489L65.104 567.594L70.941 581.739L77.025 595.916L83.355 610.121L89.932 624.346L96.755 638.587L103.824 652.838L111.138 667.092L118.697 681.344L126.501 695.588L134.549 709.818L142.84 724.028L151.375 738.213L160.1 752.281L168.959 766.144L177.947 779.8L187.059 793.245L196.29 806.476L205.634 819.489L215.087 832.283L224.644 844.855L234.299 857.195L244.048 869.315L253.886 881.195L263.807 892.845L273.807 904.255L283.88 915.425L294.022 926.355L304.227 937.035L314.491 947.465L324.808 957.635L335.173 967.555L345.581 977.215L356.028 986.615L366.508 995.745L377.017 1004.62L387.548 1013.21L398.098 1021.52L408.66 1029.57L419.231 1037.32L429.805 1044.8L440.376 1051.99L450.941 1058.91L461.494 1065.51L472.029 1071.82L482.543 1077.84L493.029 1083.55L503.483 1088.97L513.9 1094.07L524.274 1098.87L534.601 1103.34L544.877 1107.51L555.097 1111.36L565.247 1114.88L575.337 1118.07L585.347 1120.93L595.287 1123.47L605.147 1125.68L614.917 1127.53L624.587 1129.05L634.167 1130.24L643.637 1131.07L653.007 1131.55L662.257 1131.68L671.397 1131.45L680.407 1130.87L689.297 1129.93L698.047 1128.62L706.667 1126.93L715.137 1124.89L723.457 1122.45L731.627 1119.66L739.647 1116.47L747.497 1112.91L755.177 1108.97L762.687 1104.63L769.967 1099.93L776.987 1094.89L783.747 1089.53L790.237 1083.86L796.457 1077.87L802.407 1071.57L808.097 1064.97L813.527 1058.07L818.687 1050.88L823.587 1043.41L828.217 1035.64L832.587 1027.63L836.697 1019.32L840.547 1010.77L844.127 1001.97L847.457 992.905L850.517 983.605L853.317 974.065L855.857 964.285L858.137 954.285L860.157 944.065L861.917 933.635L863.417 922.995L864.667 912.145L865.647 901.105L866.377 889.875L866.847 878.455L867.057 866.855L867.017 855.085L866.717 843.145L866.167 831.044L865.357 818.788L864.287 806.381L862.967 793.831L861.397 781.142L859.567 768.32L857.487 755.372L855.157 742.303L852.567 729.12L849.727 715.827L846.637 702.431L843.297 688.938L839.697 675.353L835.857 661.683L831.757 647.933L827.417 634.109L822.817 620.217L817.977 606.262L812.887 592.252L807.547 578.191L801.957 564.085L796.117 549.94L790.037 535.763L783.707 521.558L777.127 507.333L770.307 493.092L763.237 478.841L755.927 464.587L748.367 450.335L740.557 436.091L732.517 421.861L724.217 407.651L715.687 393.467M651.407 412.799L645.247 402.317L638.967 391.987L632.597 381.812L626.117 371.793L619.547 361.932L612.877 352.233L606.117 342.698L599.267 333.328L592.337 324.125L585.327 315.093L578.247 306.234L571.097 297.548L563.867 289.04L556.587 280.711L549.237 272.563L541.837 264.599L534.376 256.821L526.869 249.231L519.318 241.832L511.724 234.625L504.093 227.613L496.427 220.798L488.731 214.182L481.008 207.769L473.261 201.559L465.495 195.555L457.714 189.76L449.921 184.176L442.119 178.804L434.313 173.648L426.506 168.709L418.702 163.99L410.905 159.493L403.118 155.22L395.345 151.174L387.591 147.356L379.858 143.769L372.15 140.416L364.471 137.298L356.825 134.418L349.216 131.777L341.646 129.38L334.121 127.226L326.644 125.319L319.218 123.662L311.847 122.256L304.535 121.103L297.285 120.206L290.102 119.567L282.989 119.188L275.95 119.072L268.989 119.221L262.108 119.637L255.313 120.322L248.606 121.279L241.992 122.509L235.474 124.016L229.056 125.801L222.741 127.866L216.534 130.215L210.438 132.848L204.457 135.769L198.594 138.979L192.888 142.46L187.374 146.189L182.052 150.16L176.921 154.369L171.982 158.813L167.234 163.486L162.678 168.385L158.314 173.505L154.14 178.841L150.158 184.39L146.367 190.146L142.767 196.107L139.358 202.266L136.139 208.621L133.111 215.166L130.274 221.897L127.627 228.81L125.171 235.9L122.905 243.164L120.829 250.596L118.944 258.193L117.248 265.95L115.742 273.862L114.426 281.926L113.3 290.137L112.364 298.49L111.617 306.982L111.059 315.607L110.691 324.362L110.512 333.243L110.523 342.244L110.722 351.361L111.111 360.591L111.688 369.929L112.454 379.37L113.409 388.91L114.552 398.544L115.884 408.269L117.404 418.08L119.113 427.973L121.009 437.943L123.094 447.986L125.367 458.097L127.828 468.273L130.477 478.508L133.313 488.8L136.337 499.142L139.549 509.531L142.948 519.962L146.534 530.431L150.308 540.935L154.269 551.467L158.417 562.025L162.751 572.603L167.273 583.197L171.982 593.804L176.877 604.418L181.959 615.035L187.227 625.651L192.682 636.262L198.323 646.862L204.15 657.449L210.164 668.017L216.326 678.499L222.597 688.829L228.973 699.004L235.451 709.023L242.026 718.884L248.695 728.583L255.455 738.118L262.301 747.488L269.229 756.691L276.237 765.723L283.321 774.582L290.475 783.267L297.698 791.776L304.985 800.105L312.332 808.252L319.736 816.217L327.193 823.995L334.699 831.585L342.251 838.984L349.844 846.195L357.476 853.205L365.141 860.015L372.838 866.635L380.561 873.045L388.307 879.255L396.073 885.265L403.855 891.055L411.648 896.645L419.45 902.015L427.256 907.165L435.062 912.105L442.866 916.825L450.664 921.325L458.45 925.595L466.223 929.645L473.978 933.465L481.711 937.045L489.419 940.405L497.097 943.515L504.743 946.395L512.353 949.035L519.922 951.435L527.447 953.585L534.925 955.495L542.347 957.155L549.717 958.565L557.037 959.715L564.287 960.615L571.467 961.245L578.577 961.625L585.617 961.745L592.577 961.595L599.457 961.175L606.257 960.495L612.967 959.535L619.577 958.305L626.097 956.805L632.517 955.015L638.827 952.945L645.037 950.605L651.127 947.965L657.107 945.045L662.977 941.835L668.677 938.355L674.197 934.625L679.517 930.655L684.647 926.445L689.587 922.005L694.337 917.325L698.887 912.435L703.257 907.315L707.427 901.975L711.407 896.425L715.197 890.665L718.797 884.705L722.207 878.545L725.427 872.195L728.457 865.655L731.297 858.915L733.937 852.005L736.397 844.915L738.667 837.652L740.737 830.22L742.627 822.623L744.317 814.866L745.827 806.954L747.147 798.89L748.267 790.679L749.207 782.326L749.947 773.834L750.507 765.209L750.877 756.454L751.057 747.573L751.047 738.572L750.847 729.455L750.457 720.225L749.877 710.887L749.117 701.446L748.157 691.906L747.017 682.272L745.687 672.547L744.167 662.736L742.457 652.843L740.557 642.873L738.477 632.83L736.197 622.719L733.737 612.543L731.087 602.307L728.257 592.016L725.227 581.674L722.017 571.285L718.617 560.854L715.037 550.385L711.257 539.881L707.297 529.349L703.147 518.791L698.817 508.213L694.297 497.619L689.587 487.012L684.687 476.398L679.607 465.781L674.337 455.165L668.887 444.554L663.247 433.954L657.417 423.367L651.407 412.799"/>
</svg>
